<?xml version="1.0" encoding="UTF-8" standalone="no"?>
<!-- Generator: Adobe Illustrator 19.0.0, SVG Export Plug-In . SVG Version: 6.00 Build 0)  -->

<svg
   xmlns:dc="http://purl.org/dc/elements/1.1/"
   xmlns:cc="http://creativecommons.org/ns#"
   xmlns:rdf="http://www.w3.org/1999/02/22-rdf-syntax-ns#"
   xmlns:svg="http://www.w3.org/2000/svg"
   xmlns="http://www.w3.org/2000/svg"
   xmlns:sodipodi="http://sodipodi.sourceforge.net/DTD/sodipodi-0.dtd"
   xmlns:inkscape="http://www.inkscape.org/namespaces/inkscape"
   version="1.1"
   id="Capa_1"
   x="0px"
   y="0px"
   viewBox="0 0 476.737 476.737"
   style="enable-background:new 0 0 476.737 476.737;"
   xml:space="preserve"
   sodipodi:docname="menu.svg"
   inkscape:version="0.92.3 (2405546, 2018-03-11)"><metadata
   id="metadata1009"><rdf:RDF><cc:Work
       rdf:about=""><dc:format>image/svg+xml</dc:format><dc:type
         rdf:resource="http://purl.org/dc/dcmitype/StillImage" /></cc:Work></rdf:RDF></metadata><defs
   id="defs1007" /><sodipodi:namedview
   pagecolor="#ffffff"
   bordercolor="#666666"
   borderopacity="1"
   objecttolerance="10"
   gridtolerance="10"
   guidetolerance="10"
   inkscape:pageopacity="0"
   inkscape:pageshadow="2"
   inkscape:window-width="1327"
   inkscape:window-height="713"
   id="namedview1005"
   showgrid="false"
   inkscape:zoom="0.70008076"
   inkscape:cx="162.67454"
   inkscape:cy="235.58485"
   inkscape:window-x="39"
   inkscape:window-y="27"
   inkscape:window-maximized="1"
   inkscape:current-layer="Capa_1" />
<g
   id="g845"><circle
     r="202.0072"
     cy="240.38857"
     cx="232.30829"
     id="path1554"
     style="opacity:1;fill:#aa0000;fill-opacity:0.98514847;fill-rule:nonzero;stroke:#1a1a1a;stroke-width:1.88976383;stroke-linecap:round;stroke-linejoin:miter;stroke-miterlimit:4;stroke-dasharray:none;stroke-dashoffset:0;stroke-opacity:1;paint-order:stroke markers fill" /><circle
     r="194.97751"
     cy="237.47888"
     cx="240.68651"
     id="path834"
     style="opacity:1;fill:#1a1a1a;fill-opacity:1;fill-rule:nonzero;stroke:#1a1a1a;stroke-width:3;stroke-linecap:round;stroke-linejoin:miter;stroke-miterlimit:4;stroke-dasharray:none;stroke-dashoffset:0;stroke-opacity:1;paint-order:stroke markers fill" /><g
     transform="translate(2.8568149,-1.4284063)"
     style="opacity:1;fill:#aa0000;fill-opacity:1;stroke:#1a1a1a;stroke-width:3;stroke-miterlimit:4;stroke-dasharray:none;stroke-opacity:1"
     id="g972">
	<g
   style="fill:#aa0000;fill-opacity:1;stroke:#1a1a1a;stroke-width:3;stroke-miterlimit:4;stroke-dasharray:none;stroke-opacity:1"
   id="g970">
		<g
   style="fill:#aa0000;fill-opacity:1;stroke:#1a1a1a;stroke-width:3;stroke-miterlimit:4;stroke-dasharray:none;stroke-opacity:1"
   id="g968">
			<path
   id="path966"
   d="M 238.369,0 C 106.726,0 0,106.726 0,238.369 0,370.044 106.726,476.738 238.369,476.738 370.044,476.738 476.738,370.044 476.738,238.369 476.737,106.726 370.043,0 238.369,0 Z m 127.13,349.607 h -254.26 c -8.772,0 -15.891,-7.151 -15.891,-15.891 0,-8.74 7.119,-15.891 15.891,-15.891 h 254.26 c 8.74,0 15.891,7.151 15.891,15.891 0,8.74 -7.151,15.891 -15.891,15.891 z m 0,-95.347 h -254.26 c -8.772,0 -15.891,-7.151 -15.891,-15.891 0,-8.772 7.119,-15.891 15.891,-15.891 h 254.26 c 8.74,0 15.891,7.119 15.891,15.891 0,8.74 -7.151,15.891 -15.891,15.891 z m 0,-95.348 h -254.26 c -8.772,0 -15.891,-7.119 -15.891,-15.891 0,-8.772 7.119,-15.891 15.891,-15.891 h 254.26 c 8.74,0 15.891,7.119 15.891,15.891 0,8.772 -7.151,15.891 -15.891,15.891 z"
   style="fill:#aa0000;fill-opacity:1;stroke:#1a1a1a;stroke-width:3;stroke-miterlimit:4;stroke-dasharray:none;stroke-opacity:1"
   inkscape:connector-curvature="0" />
		</g>
	</g>
</g></g>
<g
   id="g974">
</g>
<g
   id="g976">
</g>
<g
   id="g978">
</g>
<g
   id="g980">
</g>
<g
   id="g982">
</g>
<g
   id="g984">
</g>
<g
   id="g986">
</g>
<g
   id="g988">
</g>
<g
   id="g990">
</g>
<g
   id="g992">
</g>
<g
   id="g994">
</g>
<g
   id="g996">
</g>
<g
   id="g998">
</g>
<g
   id="g1000">
</g>
<g
   id="g1002">
</g>
</svg>